<?xml version="1.0" encoding="iso-8859-1"?>
<!-- Generator: Adobe Illustrator 16.0.0, SVG Export Plug-In . SVG Version: 6.00 Build 0)  -->
<!DOCTYPE svg PUBLIC "-//W3C//DTD SVG 1.1//EN" "http://www.w3.org/Graphics/SVG/1.1/DTD/svg11.dtd">
<svg version="1.1" id="Capa_1" xmlns="http://www.w3.org/2000/svg" xmlns:xlink="http://www.w3.org/1999/xlink" x="0px" y="0px"
	 width="929.548px" height="929.549px" viewBox="0 0 929.548 929.549" style="enable-background:new 0 0 929.548 929.549;"
	 xml:space="preserve">
<g>
	<g>
		<path d="M152.964,922.853l295.743-326.307L341.566,489.404C187.716,628.845,24.424,776.842,15.631,784.812
			c-0.251,0.228-0.494,0.457-0.729,0.702c-9.743,10.2-8.09,27.901,3.815,39.807l94.074,94.074
			C124.84,931.442,142.826,932.991,152.964,922.853z"/>
		<path d="M695.816,323.899c0.213-0.235,0.434-0.466,0.661-0.687c25.993-25.257,66.197-22.911,95.568-42.533
			c23.192-15.495,36.99-49.801,51.188-73.14c23.103-37.974,46.204-75.949,69.306-113.923c3.219-5.29,2.399-12.09-1.979-16.469
			l-49.597-49.596c-4.378-4.378-11.184-5.195-16.473-1.977c-39.445,23.997-78.893,47.995-118.339,71.992
			c-24.813,15.096-53.909,27.766-70.994,52.38c-19.591,28.225-15.142,66.147-40.578,92.014
			c-0.003,0.003-48.994,44.406-118.953,107.813l92.711,92.711L695.816,323.899z"/>
		<path d="M571.529,461.031l-94.448-94.448L374.002,263.505c1.654-4.356,3.145-8.76,4.475-13.203
			c1.389-4.64,2.605-9.322,3.642-14.036c13.772-62.643-3.595-130.885-52.108-179.399C271.227-1.916,184.132-15.125,112.621,17.232
			c-11.882,5.376-14.718,20.981-5.497,30.203l120.251,120.251c14.625,14.625,14.625,38.338,0,52.963L107,341.024
			c-9.161,9.161-6.339,24.654,5.461,30.006c38.818,17.607,82.239,21.772,123.238,12.507c4.692-1.06,9.351-2.297,13.969-3.709
			c4.421-1.352,8.802-2.866,13.137-4.541l97.308,97.309l105.404,105.403L804.75,917.233c4.877,4.877,11.271,7.316,17.662,7.316
			c6.393,0,12.785-2.438,17.662-7.316l76.166-76.166c9.755-9.755,9.755-25.57,0-35.324L571.529,461.031z M817.547,852.08
			c-17.674,0-32-14.327-32-32s14.326-32,32-32c17.673,0,32,14.327,32,32S835.22,852.08,817.547,852.08z"/>
		<path d="M80.608,309.248l79.586-79.586c8.255-8.256,8.255-21.641,0-29.896L48.199,87.771c-5.945-5.945-15.953-4.381-19.817,3.085
			C-7.281,159.771-0.342,245.019,49.206,307.573C57.007,317.422,71.723,318.131,80.608,309.248z"/>
	</g>
</g>
<g>
</g>
<g>
</g>
<g>
</g>
<g>
</g>
<g>
</g>
<g>
</g>
<g>
</g>
<g>
</g>
<g>
</g>
<g>
</g>
<g>
</g>
<g>
</g>
<g>
</g>
<g>
</g>
<g>
</g>
</svg>
